# xmcd CD database file generated by OrangeCD 5.2
#
# Track frame offsets:
#	150
#	20694
#	35468
#	53839
#	76048
#	93612
#	106321
#	124612
#	138099
#	151033
#	173062
#	197048
#	215981
#	233337
#	247431
#	266960
#	287059
#	306364
#	325785
#	341909
#
# Disc length: 4772 seconds
#
# Revision: 0
# Processed by: cddbd v1.5.1PL2 Copyright (c) Steve Scherf et al.
# Submitted via: OrangeCD 5.2
#
DISCID=2212a214
DTITLE=Various Artist - Try To Remember   Volume 3
DYEAR=2006
DGENRE=Dance
TTITLE0=Gladys Knight and The Pips - The Way We Were (Try To Remember)
TTITLE1=Four Tops - Still Water (Love)
TTITLE2=Marvin Gaye - Let's Get It On
TTITLE3=Michael Jackson - Billie Jean
TTITLE4=Stevie Wonder - Sir Duke
TTITLE5=James Brown - Please Please Please
TTITLE6=The Pointer Sisters - Jump (For My Love)
TTITLE7=Etta James - At Last
TTITLE8=Etta and Harvey - If I Can't Have You
TTITLE9=Patti LaBelle - On My Own  (With Michael McDonald)
TTITLE10=Patti LaBelle - Oh People
TTITLE11=Tina Turner - The Best
TTITLE12=Luther Vandross - Never Too Much
TTITLE13=Donnie Elbert - What Can I Do
TTITLE14=Lionel Richie - Easy
TTITLE15=Loul Rawls - You'll Never Find Another Love Like Mine
TTITLE16=Rod Stewart - Having A Party (Live With Ronnie Wood)
TTITLE17=Rod Stewart - The Motown Song (With The Temptations)
TTITLE18=Rod Stewart - Tonight's The Night (It's Gonna Be Alright)
TTITLE19=Rod Stewart - Sooth Me
EXTD=
EXTT0=
EXTT1=
EXTT2=
EXTT3=
EXTT4=
EXTT5=
EXTT6=
EXTT7=
EXTT8=
EXTT9=
EXTT10=
EXTT11=
EXTT12=
EXTT13=
EXTT14=
EXTT15=
EXTT16=
EXTT17=
EXTT18=
EXTT19=
PLAYORDER=
